# xmcd
#
# Track frame offsets: 
#        150
#        18647
#        42940
#        64920
#        75180
#        90155
#        110572
#        133345
#        152462
#        180657
#        200737
#        208520
#        229035
#
# Disc length: 3254 seconds
#
# Revision: 1
# Processed by: cddbd v1.5.1PL2 Copyright (c) Steve Scherf et al.
# Submitted via: ExactAudioCopy v0.95b4
#
DISCID=a50cb40d
DTITLE=Clark Terry with Jeff Lindberg and Chicago Jazz Orchestra - Porgy
DTITLE=and Bess
DYEAR=2004
DGENRE=Americana Rec.
TTITLE0=Buzzard Song
TTITLE1=Bess, You is My Woman Now
TTITLE2=Gone
TTITLE3=Gone, Gone, Gone
TTITLE4=Summertime
TTITLE5=Bess, Oh Where's My Bess?
TTITLE6=Prayer (Oh, Doctor Jesus)
TTITLE7=Fishermen, Strawberry and Devil Crab
TTITLE8=My Man's Gone Now
TTITLE9=It Ain't Necessarily So
TTITLE10=Here Come De Honey Man
TTITLE11=I Loves You, Porgy
TTITLE12=There's A Boat That's Leaving Soon For New York
EXTD=YEAR: 2004
EXTT0=
EXTT1=
EXTT2=
EXTT3=
EXTT4=
EXTT5=
EXTT6=
EXTT7=
EXTT8=
EXTT9=
EXTT10=
EXTT11=
EXTT12=
PLAYORDER=
